<?xml version="1.0" encoding="utf-8"?>
<!-- Generator: Adobe Illustrator 25.1.0, SVG Export Plug-In . SVG Version: 6.00 Build 0)  -->
<svg version="1.1" id="Calque_1" xmlns="http://www.w3.org/2000/svg" xmlns:xlink="http://www.w3.org/1999/xlink" x="0px" y="0px"
	 viewBox="0 0 61.2 31.1" style="enable-background:new 0 0 61.2 31.1;" xml:space="preserve">
<style type="text/css">
	.st0{fill:#FFFFFF;}
	.st1{fill:#00B7EB;}
	.st2{fill:#FCF508;}
	.st3{fill:#FF0090;}
</style>
<g>
	<path class="st0" d="M12.4,30.8c-0.4,0-0.7-0.2-0.9-0.5L0.5,14c-0.2-0.2-0.2-0.5-0.2-0.8s0.2-0.5,0.4-0.7l12.6-8.4
		c0.2-0.1,0.4-0.2,0.6-0.2c0.4,0,0.7,0.2,0.9,0.5l11,16.4c0.3,0.5,0.2,1.1-0.3,1.5l-12.6,8.4C12.8,30.8,12.6,30.8,12.4,30.8z"/>
	<path d="M13.9,4.1L13.9,4.1c0.3,0,0.5,0.1,0.7,0.4l11,16.4c0.2,0.4,0.1,0.9-0.2,1.1l-12.6,8.4c-0.1,0.1-0.3,0.1-0.4,0.1
		c-0.3,0-0.5-0.1-0.7-0.4l-11-16.4c-0.2-0.4-0.1-0.9,0.2-1.1l12.6-8.4C13.6,4.2,13.7,4.1,13.9,4.1 M13.9,3.6c-0.3,0-0.5,0.1-0.7,0.2
		L0.6,12.3c-0.6,0.4-0.8,1.2-0.4,1.8l11,16.4c0.3,0.4,0.7,0.6,1.1,0.6c0.3,0,0.5-0.1,0.7-0.2l12.6-8.4c0.6-0.4,0.8-1.2,0.4-1.8
		L15,4.2C14.7,3.8,14.3,3.6,13.9,3.6L13.9,3.6z"/>
</g>
<g>
	<path class="st1" d="M10.1,23c-0.3,0-0.5-0.1-0.7-0.4l-5.7-8.5c-0.3-0.4-0.2-0.9,0.2-1.1l9-6c0.1-0.1,0.3-0.1,0.5-0.1
		c0.3,0,0.5,0.1,0.7,0.4l5.7,8.5c0.1,0.2,0.2,0.4,0.1,0.6c0,0.2-0.2,0.4-0.3,0.5l-9,6C10.4,22.9,10.3,23,10.1,23z"/>
	<path class="st1" d="M13.4,7.3c0.1,0,0.2,0.1,0.3,0.1l5.7,8.5c0.1,0.1,0.1,0.2,0,0.2c0,0,0,0.1-0.1,0.2l-9,6
		c-0.1,0-0.1,0.1-0.2,0.1c-0.1,0-0.2-0.1-0.3-0.1l-5.7-8.5c-0.1-0.1-0.1-0.3,0.1-0.4l9-6C13.2,7.3,13.3,7.3,13.4,7.3 M13.4,6.3
		c-0.3,0-0.5,0.1-0.7,0.2l-9,6c-0.6,0.4-0.8,1.2-0.4,1.8L9,22.9c0.3,0.4,0.7,0.6,1.1,0.6c0.3,0,0.5-0.1,0.7-0.2l9-6
		c0.6-0.4,0.8-1.2,0.4-1.8l-5.7-8.5C14.2,6.5,13.8,6.3,13.4,6.3L13.4,6.3z"/>
</g>
<g>
	<path class="st0" d="M51,30.6c-0.2,0-0.3,0-0.5-0.1L37,23.7c-0.3-0.1-0.5-0.4-0.5-0.6c-0.1-0.3-0.1-0.6,0.1-0.8l8.9-17.6
		c0.2-0.4,0.6-0.6,1-0.6c0.2,0,0.3,0,0.5,0.1L60.3,11c0.3,0.1,0.5,0.4,0.5,0.6c0.1,0.3,0.1,0.6-0.1,0.8l-8.9,17.6
		C51.7,30.4,51.4,30.6,51,30.6z"/>
	<path d="M46.4,4.3L46.4,4.3c0.1,0,0.3,0,0.4,0.1l13.4,6.8c0.2,0.1,0.3,0.3,0.4,0.5c0.1,0.2,0.1,0.4,0,0.6l-8.9,17.6
		c-0.1,0.3-0.4,0.5-0.7,0.5c-0.1,0-0.3,0-0.4-0.1l-13.4-6.8c-0.4-0.2-0.6-0.7-0.4-1.1l8.9-17.6C45.8,4.5,46.1,4.3,46.4,4.3
		 M46.4,3.8c-0.5,0-1,0.3-1.2,0.7l-8.9,17.6c-0.3,0.7-0.1,1.5,0.6,1.8l13.4,6.8c0.2,0.1,0.4,0.1,0.6,0.1c0.5,0,1-0.3,1.2-0.7
		l8.9-17.6c0.3-0.7,0.1-1.5-0.6-1.8L47,4C46.8,3.9,46.6,3.8,46.4,3.8L46.4,3.8z"/>
</g>
<g>
	<path class="st2" d="M52.4,22.7c-0.1,0-0.2,0-0.3-0.1l-9.8-4.9c-0.4-0.2-0.5-0.6-0.3-1l4.7-9.3C46.8,7.2,47.1,7,47.3,7
		c0.1,0,0.2,0,0.3,0.1l9.8,4.9c0.4,0.2,0.5,0.6,0.3,1l-4.7,9.3C52.9,22.6,52.7,22.7,52.4,22.7z"/>
	<path class="st2" d="M47.3,7.5c0,0,0.1,0,0.1,0l9.8,4.9c0.1,0,0.1,0.1,0.1,0.1s0,0.1,0,0.2l-4.7,9.3c0,0.1-0.1,0.1-0.2,0.1
		c0,0-0.1,0-0.1,0l-9.8-4.9c-0.1,0-0.1-0.1-0.1-0.1s0-0.1,0-0.2l4.7-9.3C47.2,7.5,47.3,7.5,47.3,7.5 M47.3,6.5
		c-0.5,0-0.9,0.2-1.1,0.7l-4.7,9.3c-0.3,0.6-0.1,1.4,0.5,1.7l9.8,4.9c0.2,0.1,0.4,0.1,0.6,0.1c0.5,0,0.9-0.2,1.1-0.7l4.7-9.3
		c0.3-0.6,0.1-1.4-0.5-1.7l-9.8-4.9C47.7,6.5,47.5,6.5,47.3,6.5L47.3,6.5z"/>
</g>
<g>
	<path class="st0" d="M21.7,26.4c-0.6,0-1.1-0.5-1.1-1.1v-24c0-0.6,0.5-1.1,1.1-1.1h18.5c0.6,0,1.1,0.5,1.1,1.1v24
		c0,0.6-0.5,1.1-1.1,1.1H21.7z"/>
	<path d="M40.2,0.5c0.5,0,0.8,0.4,0.8,0.8v24c0,0.5-0.4,0.8-0.8,0.8H21.7c-0.5,0-0.8-0.4-0.8-0.8v-24c0-0.5,0.4-0.8,0.8-0.8H40.2
		 M40.2,0H21.7c-0.7,0-1.3,0.6-1.3,1.3v24c0,0.7,0.6,1.3,1.3,1.3h18.5c0.7,0,1.3-0.6,1.3-1.3v-24C41.5,0.6,40.9,0,40.2,0L40.2,0z"/>
</g>
<g>
	<path class="st3" d="M24.4,16.8c-0.5,0-0.8-0.4-0.8-0.8V3.3c0-0.5,0.4-0.8,0.8-0.8h13.3c0.5,0,0.8,0.4,0.8,0.8V16
		c0,0.5-0.4,0.8-0.8,0.8H24.4z"/>
	<path class="st3" d="M37.8,3c0.2,0,0.3,0.2,0.3,0.3V16c0,0.2-0.2,0.3-0.3,0.3H24.4c-0.2,0-0.3-0.2-0.3-0.3V3.3
		c0-0.2,0.2-0.3,0.3-0.3H37.8 M37.8,2H24.4c-0.7,0-1.3,0.6-1.3,1.3V16c0,0.7,0.6,1.3,1.3,1.3h13.3c0.7,0,1.3-0.6,1.3-1.3V3.3
		C39.1,2.6,38.5,2,37.8,2L37.8,2z"/>
</g>
</svg>
